<mxfile host="app.diagrams.net" modified="2023-04-05T05:17:40.021Z" agent="Mozilla/5.0 (Windows NT 10.0; Win64; x64) AppleWebKit/537.36 (KHTML, like Gecko) Chrome/111.0.0.0 Safari/537.36 Edg/111.0.1661.62" etag="Nb5duxKtNatg7dDvLZUS" version="21.1.4" type="device">
  <diagram name="第 1 页" id="7bX_qFpZ1VS5tG63Vx8O">
    <mxGraphModel dx="803" dy="466" grid="1" gridSize="10" guides="1" tooltips="1" connect="1" arrows="1" fold="1" page="1" pageScale="1" pageWidth="827" pageHeight="1169" math="0" shadow="0">
      <root>
        <mxCell id="0" />
        <mxCell id="1" parent="0" />
        <mxCell id="QlT_gBvLsnL5EZiW_SKD-1" value="" style="endArrow=none;html=1;rounded=0;" edge="1" parent="1">
          <mxGeometry width="50" height="50" relative="1" as="geometry">
            <mxPoint x="80" y="280" as="sourcePoint" />
            <mxPoint x="400" y="280" as="targetPoint" />
          </mxGeometry>
        </mxCell>
        <mxCell id="QlT_gBvLsnL5EZiW_SKD-4" value="" style="endArrow=none;html=1;rounded=0;dashed=1;" edge="1" parent="1">
          <mxGeometry width="50" height="50" relative="1" as="geometry">
            <mxPoint x="120" y="340" as="sourcePoint" />
            <mxPoint x="120" y="300" as="targetPoint" />
          </mxGeometry>
        </mxCell>
        <mxCell id="QlT_gBvLsnL5EZiW_SKD-5" value="" style="endArrow=none;html=1;rounded=0;dashed=1;" edge="1" parent="1">
          <mxGeometry width="50" height="50" relative="1" as="geometry">
            <mxPoint x="100" y="320" as="sourcePoint" />
            <mxPoint x="140" y="320" as="targetPoint" />
          </mxGeometry>
        </mxCell>
        <mxCell id="QlT_gBvLsnL5EZiW_SKD-6" value="" style="endArrow=none;html=1;rounded=0;dashed=1;" edge="1" parent="1">
          <mxGeometry width="50" height="50" relative="1" as="geometry">
            <mxPoint x="200" y="340" as="sourcePoint" />
            <mxPoint x="200" y="300" as="targetPoint" />
          </mxGeometry>
        </mxCell>
        <mxCell id="QlT_gBvLsnL5EZiW_SKD-7" value="" style="endArrow=none;html=1;rounded=0;dashed=1;" edge="1" parent="1">
          <mxGeometry width="50" height="50" relative="1" as="geometry">
            <mxPoint x="180" y="320" as="sourcePoint" />
            <mxPoint x="220" y="320" as="targetPoint" />
          </mxGeometry>
        </mxCell>
        <mxCell id="QlT_gBvLsnL5EZiW_SKD-8" value="" style="endArrow=none;html=1;rounded=0;dashed=1;" edge="1" parent="1">
          <mxGeometry width="50" height="50" relative="1" as="geometry">
            <mxPoint x="280" y="340" as="sourcePoint" />
            <mxPoint x="280" y="300" as="targetPoint" />
          </mxGeometry>
        </mxCell>
        <mxCell id="QlT_gBvLsnL5EZiW_SKD-9" value="" style="endArrow=none;html=1;rounded=0;dashed=1;" edge="1" parent="1">
          <mxGeometry width="50" height="50" relative="1" as="geometry">
            <mxPoint x="260" y="320" as="sourcePoint" />
            <mxPoint x="300" y="320" as="targetPoint" />
          </mxGeometry>
        </mxCell>
        <mxCell id="QlT_gBvLsnL5EZiW_SKD-10" value="" style="endArrow=none;html=1;rounded=0;dashed=1;" edge="1" parent="1">
          <mxGeometry width="50" height="50" relative="1" as="geometry">
            <mxPoint x="360" y="340" as="sourcePoint" />
            <mxPoint x="360" y="300" as="targetPoint" />
          </mxGeometry>
        </mxCell>
        <mxCell id="QlT_gBvLsnL5EZiW_SKD-11" value="" style="endArrow=none;html=1;rounded=0;dashed=1;" edge="1" parent="1">
          <mxGeometry width="50" height="50" relative="1" as="geometry">
            <mxPoint x="340" y="320" as="sourcePoint" />
            <mxPoint x="380" y="320" as="targetPoint" />
          </mxGeometry>
        </mxCell>
        <mxCell id="QlT_gBvLsnL5EZiW_SKD-13" value="" style="endArrow=none;dashed=1;html=1;rounded=0;" edge="1" parent="1" source="QlT_gBvLsnL5EZiW_SKD-23">
          <mxGeometry width="50" height="50" relative="1" as="geometry">
            <mxPoint x="160" y="360" as="sourcePoint" />
            <mxPoint x="160" y="120" as="targetPoint" />
          </mxGeometry>
        </mxCell>
        <mxCell id="QlT_gBvLsnL5EZiW_SKD-14" value="" style="endArrow=none;dashed=1;html=1;rounded=0;" edge="1" parent="1" source="QlT_gBvLsnL5EZiW_SKD-27">
          <mxGeometry width="50" height="50" relative="1" as="geometry">
            <mxPoint x="240" y="360" as="sourcePoint" />
            <mxPoint x="240" y="120" as="targetPoint" />
          </mxGeometry>
        </mxCell>
        <mxCell id="QlT_gBvLsnL5EZiW_SKD-15" value="" style="endArrow=none;dashed=1;html=1;rounded=0;" edge="1" parent="1">
          <mxGeometry width="50" height="50" relative="1" as="geometry">
            <mxPoint x="320" y="360" as="sourcePoint" />
            <mxPoint x="320" y="120" as="targetPoint" />
          </mxGeometry>
        </mxCell>
        <mxCell id="QlT_gBvLsnL5EZiW_SKD-16" value="" style="shape=flexArrow;endArrow=classic;html=1;rounded=0;" edge="1" parent="1">
          <mxGeometry width="50" height="50" relative="1" as="geometry">
            <mxPoint x="40" y="180" as="sourcePoint" />
            <mxPoint x="80" y="180" as="targetPoint" />
          </mxGeometry>
        </mxCell>
        <mxCell id="QlT_gBvLsnL5EZiW_SKD-17" value="" style="shape=flexArrow;endArrow=classic;html=1;rounded=0;" edge="1" parent="1">
          <mxGeometry width="50" height="50" relative="1" as="geometry">
            <mxPoint x="40" y="260" as="sourcePoint" />
            <mxPoint x="80" y="260" as="targetPoint" />
          </mxGeometry>
        </mxCell>
        <mxCell id="QlT_gBvLsnL5EZiW_SKD-18" value="" style="shape=flexArrow;endArrow=classic;html=1;rounded=0;" edge="1" parent="1">
          <mxGeometry width="50" height="50" relative="1" as="geometry">
            <mxPoint x="40" y="340" as="sourcePoint" />
            <mxPoint x="80" y="340" as="targetPoint" />
          </mxGeometry>
        </mxCell>
        <mxCell id="QlT_gBvLsnL5EZiW_SKD-19" value="" style="endArrow=none;html=1;rounded=0;" edge="1" parent="1">
          <mxGeometry width="50" height="50" relative="1" as="geometry">
            <mxPoint x="80" y="200" as="sourcePoint" />
            <mxPoint x="400" y="200" as="targetPoint" />
          </mxGeometry>
        </mxCell>
        <mxCell id="QlT_gBvLsnL5EZiW_SKD-20" value="1" style="ellipse;whiteSpace=wrap;html=1;aspect=fixed;" vertex="1" parent="1">
          <mxGeometry x="10" y="170" width="20" height="20" as="geometry" />
        </mxCell>
        <mxCell id="QlT_gBvLsnL5EZiW_SKD-21" value="2" style="ellipse;whiteSpace=wrap;html=1;aspect=fixed;" vertex="1" parent="1">
          <mxGeometry x="10" y="250" width="20" height="20" as="geometry" />
        </mxCell>
        <mxCell id="QlT_gBvLsnL5EZiW_SKD-22" value="3" style="ellipse;whiteSpace=wrap;html=1;aspect=fixed;" vertex="1" parent="1">
          <mxGeometry x="10" y="330" width="20" height="20" as="geometry" />
        </mxCell>
        <mxCell id="QlT_gBvLsnL5EZiW_SKD-24" value="5" style="ellipse;whiteSpace=wrap;html=1;aspect=fixed;" vertex="1" parent="1">
          <mxGeometry x="110" y="190" width="20" height="20" as="geometry" />
        </mxCell>
        <mxCell id="QlT_gBvLsnL5EZiW_SKD-25" value="5" style="ellipse;whiteSpace=wrap;html=1;aspect=fixed;" vertex="1" parent="1">
          <mxGeometry x="110" y="270" width="20" height="20" as="geometry" />
        </mxCell>
        <mxCell id="QlT_gBvLsnL5EZiW_SKD-26" value="" style="endArrow=none;dashed=1;html=1;rounded=0;" edge="1" parent="1" target="QlT_gBvLsnL5EZiW_SKD-23">
          <mxGeometry width="50" height="50" relative="1" as="geometry">
            <mxPoint x="160" y="360" as="sourcePoint" />
            <mxPoint x="160" y="120" as="targetPoint" />
          </mxGeometry>
        </mxCell>
        <mxCell id="QlT_gBvLsnL5EZiW_SKD-23" value="4" style="ellipse;whiteSpace=wrap;html=1;aspect=fixed;" vertex="1" parent="1">
          <mxGeometry x="150" y="130" width="20" height="20" as="geometry" />
        </mxCell>
        <mxCell id="QlT_gBvLsnL5EZiW_SKD-28" value="" style="endArrow=none;dashed=1;html=1;rounded=0;" edge="1" parent="1" target="QlT_gBvLsnL5EZiW_SKD-27">
          <mxGeometry width="50" height="50" relative="1" as="geometry">
            <mxPoint x="240" y="360" as="sourcePoint" />
            <mxPoint x="240" y="120" as="targetPoint" />
          </mxGeometry>
        </mxCell>
        <mxCell id="QlT_gBvLsnL5EZiW_SKD-27" value="4" style="ellipse;whiteSpace=wrap;html=1;aspect=fixed;" vertex="1" parent="1">
          <mxGeometry x="230" y="130" width="20" height="20" as="geometry" />
        </mxCell>
        <mxCell id="QlT_gBvLsnL5EZiW_SKD-29" value="4" style="ellipse;whiteSpace=wrap;html=1;aspect=fixed;" vertex="1" parent="1">
          <mxGeometry x="310" y="130" width="20" height="20" as="geometry" />
        </mxCell>
        <mxCell id="QlT_gBvLsnL5EZiW_SKD-30" value="6" style="ellipse;whiteSpace=wrap;html=1;aspect=fixed;" vertex="1" parent="1">
          <mxGeometry x="210" y="330" width="20" height="20" as="geometry" />
        </mxCell>
        <mxCell id="QlT_gBvLsnL5EZiW_SKD-32" value="6" style="ellipse;whiteSpace=wrap;html=1;aspect=fixed;" vertex="1" parent="1">
          <mxGeometry x="130" y="330" width="20" height="20" as="geometry" />
        </mxCell>
        <mxCell id="QlT_gBvLsnL5EZiW_SKD-33" value="6" style="ellipse;whiteSpace=wrap;html=1;aspect=fixed;" vertex="1" parent="1">
          <mxGeometry x="290" y="330" width="20" height="20" as="geometry" />
        </mxCell>
        <mxCell id="QlT_gBvLsnL5EZiW_SKD-34" value="6" style="ellipse;whiteSpace=wrap;html=1;aspect=fixed;" vertex="1" parent="1">
          <mxGeometry x="370" y="330" width="20" height="20" as="geometry" />
        </mxCell>
        <mxCell id="QlT_gBvLsnL5EZiW_SKD-36" value="&lt;font face=&quot;Comic Sans MS&quot;&gt;b&lt;/font&gt;" style="text;html=1;strokeColor=none;fillColor=none;align=center;verticalAlign=middle;whiteSpace=wrap;rounded=0;" vertex="1" parent="1">
          <mxGeometry x="80" y="225" width="30" height="30" as="geometry" />
        </mxCell>
        <mxCell id="QlT_gBvLsnL5EZiW_SKD-37" value="7" style="ellipse;whiteSpace=wrap;html=1;aspect=fixed;" vertex="1" parent="1">
          <mxGeometry x="70" y="220" width="20" height="20" as="geometry" />
        </mxCell>
        <mxCell id="QlT_gBvLsnL5EZiW_SKD-41" value="&lt;font face=&quot;Comic Sans MS&quot;&gt;r&lt;/font&gt;" style="text;html=1;strokeColor=none;fillColor=none;align=center;verticalAlign=middle;whiteSpace=wrap;rounded=0;" vertex="1" parent="1">
          <mxGeometry x="260" y="225" width="30" height="30" as="geometry" />
        </mxCell>
        <mxCell id="QlT_gBvLsnL5EZiW_SKD-42" value="7" style="ellipse;whiteSpace=wrap;html=1;aspect=fixed;" vertex="1" parent="1">
          <mxGeometry x="250" y="220" width="20" height="20" as="geometry" />
        </mxCell>
        <mxCell id="QlT_gBvLsnL5EZiW_SKD-47" value="&lt;font face=&quot;Comic Sans MS&quot;&gt;{&lt;/font&gt;" style="text;html=1;strokeColor=none;fillColor=none;align=center;verticalAlign=middle;whiteSpace=wrap;rounded=0;" vertex="1" parent="1">
          <mxGeometry x="180" y="160" width="30" height="30" as="geometry" />
        </mxCell>
        <mxCell id="QlT_gBvLsnL5EZiW_SKD-48" value="&lt;font face=&quot;Comic Sans MS&quot;&gt;}&lt;/font&gt;" style="text;html=1;strokeColor=none;fillColor=none;align=center;verticalAlign=middle;whiteSpace=wrap;rounded=0;" vertex="1" parent="1">
          <mxGeometry x="270" y="160" width="30" height="30" as="geometry" />
        </mxCell>
        <mxCell id="QlT_gBvLsnL5EZiW_SKD-49" value="8" style="ellipse;whiteSpace=wrap;html=1;aspect=fixed;" vertex="1" parent="1">
          <mxGeometry x="170" y="155" width="20" height="20" as="geometry" />
        </mxCell>
        <mxCell id="QlT_gBvLsnL5EZiW_SKD-50" value="8" style="ellipse;whiteSpace=wrap;html=1;aspect=fixed;" vertex="1" parent="1">
          <mxGeometry x="260" y="155" width="20" height="20" as="geometry" />
        </mxCell>
        <mxCell id="QlT_gBvLsnL5EZiW_SKD-51" value="ln1" style="text;html=1;strokeColor=none;fillColor=none;align=center;verticalAlign=middle;whiteSpace=wrap;rounded=0;" vertex="1" parent="1">
          <mxGeometry x="190" y="160" width="40" height="30" as="geometry" />
        </mxCell>
      </root>
    </mxGraphModel>
  </diagram>
</mxfile>
